<svg  xmlns="http://www.w3.org/2000/svg" viewBox="0 0 14 14" class="design-iconfont">
  <path d="M13.5333 12.0769H13.0667V5.61538C13.0667 4.6 12.2267 3.76923 11.2 3.76923H8.4V11.6154C8.4 11.8738 8.19467 12.0769 7.93333 12.0769C7.672 12.0769 7.46667 11.8738 7.46667 11.6154V2.84615C7.46667 1.83077 6.62667 1 5.6 1H2.8C1.77333 1 0.933333 1.83077 0.933333 2.84615V12.0769H0.466667C0.205333 12.0769 0 12.28 0 12.5385C0 12.7969 0.205333 13 0.466667 13H13.5333C13.7947 13 14 12.7969 14 12.5385C14 12.28 13.7947 12.0769 13.5333 12.0769ZM5.13333 10.2308H3.26667C3.00533 10.2308 2.8 10.0277 2.8 9.76923C2.8 9.51077 3.00533 9.30769 3.26667 9.30769H5.13333C5.39467 9.30769 5.6 9.51077 5.6 9.76923C5.6 10.0277 5.39467 10.2308 5.13333 10.2308ZM5.13333 7.46154H3.26667C3.00533 7.46154 2.8 7.25846 2.8 7C2.8 6.74154 3.00533 6.53846 3.26667 6.53846H5.13333C5.39467 6.53846 5.6 6.74154 5.6 7C5.6 7.25846 5.39467 7.46154 5.13333 7.46154ZM5.13333 4.69231H3.26667C3.00533 4.69231 2.8 4.48923 2.8 4.23077C2.8 3.97231 3.00533 3.76923 3.26667 3.76923H5.13333C5.39467 3.76923 5.6 3.97231 5.6 4.23077C5.6 4.48923 5.39467 4.69231 5.13333 4.69231ZM11.6667 10.2308H9.8C9.53867 10.2308 9.33333 10.0277 9.33333 9.76923C9.33333 9.51077 9.53867 9.30769 9.8 9.30769H11.6667C11.928 9.30769 12.1333 9.51077 12.1333 9.76923C12.1333 10.0277 11.928 10.2308 11.6667 10.2308ZM11.6667 7.46154H9.8C9.53867 7.46154 9.33333 7.25846 9.33333 7C9.33333 6.74154 9.53867 6.53846 9.8 6.53846H11.6667C11.928 6.53846 12.1333 6.74154 12.1333 7C12.1333 7.25846 11.928 7.46154 11.6667 7.46154Z"/>
</svg>
