<svg  xmlns="http://www.w3.org/2000/svg" viewBox="0 0 14 14" class="design-iconfont">
  <path d="M2.82069 0.330115C2.32414 0.330115 1.91034 0.412644 1.66207 0.66023C1.41379 0.742759 1.24828 0.825288 1.16552 0.907817C1 1.07287 1 1.32046 1 1.48552V12.8745C1 14.36 11.2621 13.9474 11.2621 13.9474V12.4618L13 12.3793V0L2.82069 0.330115ZM8.11724 8.66552C8.11724 8.83058 7.95172 8.91311 7.86897 8.91311L4.22759 8.58299C4.06207 8.58299 3.97931 8.41794 3.97931 8.33541L4.06207 7.59265C4.06207 7.42759 4.22759 7.34506 4.31034 7.34506L7.95172 7.67518C8.11724 7.67518 8.2 7.84024 8.2 7.92276L8.11724 8.66552ZM9.68966 6.0246C9.68966 6.18966 9.52414 6.27219 9.44138 6.27219L3.06897 5.69449C2.90345 5.69449 2.82069 5.52943 2.82069 5.4469L2.90345 4.70414C2.90345 4.53908 3.06897 4.45655 3.15172 4.45655L9.44138 5.03426C9.6069 5.03426 9.68966 5.19931 9.68966 5.28184V6.0246ZM12.0069 11.554L11.2621 11.6366V2.55839L2.82069 1.89816C2.48966 1.89816 2.32414 1.81563 2.07586 1.7331L1.91034 1.56805V1.48552C1.9931 1.40299 1.9931 1.32046 2.24138 1.32046C2.4069 1.1554 2.57241 1.1554 2.82069 1.1554L12.0069 0.907817V11.554Z" />
</svg>
