<?xml version="1.0" standalone="no"?><!DOCTYPE svg PUBLIC "-//W3C//DTD SVG 1.1//EN" "http://www.w3.org/Graphics/SVG/1.1/DTD/svg11.dtd"><svg t="1632972550920" class="icon" viewBox="0 0 1024 1024" version="1.1" xmlns="http://www.w3.org/2000/svg" p-id="2325" xmlns:xlink="http://www.w3.org/1999/xlink" width="200" height="200"><defs><style type="text/css"></style></defs><path d="M409.6 564.8H150.3c-28.6 0-51.8 23.2-51.8 51.8v259.2c0 28.6 23.2 51.8 51.8 51.8h259.2c28.6 0 51.8-23.2 51.8-51.8V616.7c0.1-28.7-23.1-51.9-51.7-51.9z m-51.9 259.3H202.2V668.5h155.5v155.6zM876.2 98.2H616.9c-28.6 0-51.9 23.2-51.9 51.8v259.2c0 28.6 23.2 51.8 51.9 51.8h259.2c28.6 0 51.8-23.2 51.8-51.8V150.1c0.1-28.7-23.1-51.9-51.7-51.9z m-51.9 259.3H668.8V201.9h155.5v155.6zM409.6 98.2H150.3c-28.6 0-51.8 23.2-51.8 51.8v259.2c0 28.6 23.2 51.8 51.8 51.8h259.2c28.6 0 51.8-23.2 51.8-51.8V150.1c0.1-28.7-23.1-51.9-51.7-51.9z m-51.9 259.3H202.2V201.9h155.5v155.6z m518.5 207.3H616.9c-28.6 0-51.9 23.2-51.9 51.8v259.2c0 28.6 23.2 51.8 51.9 51.8h259.2c28.6 0 51.8-23.2 51.8-51.8V616.7c0.1-28.7-23.1-51.9-51.7-51.9z m-51.9 259.3H668.8V668.5h155.5v155.6z" p-id="2326"></path></svg>