<svg xmlns="http://www.w3.org/2000/svg" viewBox="0 0 14 14" class="design-iconfont">
  <path d="M4.61978 8.19768C4.73562 8.15105 4.8761 8.11178 5.04123 8.00379C5.28277 7.84672 5.47008 7.5203 5.01905 7.12271C3.52548 4.89915 4.07016 3.42169 4.29691 2.86457C4.10713 2.78849 3.89025 2.74431 3.64625 2.74431H3.56738C2.13789 2.74431 1.75834 4.08679 1.72876 4.84025C1.70904 6.61714 2.76144 7.32396 2.76144 7.32396C2.76144 7.32396 2.82799 7.41722 2.82799 7.68965C2.82799 7.751 2.78855 7.93507 2.72201 7.99152C2.13542 8.48237 0.176038 8.99286 0.0404834 10.0506C-0.030991 10.355 0.0109078 10.674 0.0256956 10.9685C0.346098 11.2238 1.37385 11.4373 1.37385 11.4373C1.37385 11.4373 1.46011 11.1698 1.54638 10.728C1.67207 10.0727 2.52977 9.01495 4.61978 8.19768ZM13.9583 10.0408C13.8178 8.9855 11.8091 8.47256 11.2078 7.98416C11.1387 7.92771 11.0993 7.74364 11.0993 7.68228C11.0993 7.41232 11.1659 7.31905 11.1659 7.31905C11.1659 7.31905 12.2429 6.61468 12.2232 4.84025C12.1936 4.08679 11.7401 2.74676 10.3402 2.74676H10.2613C9.96065 2.74676 9.70679 2.80567 9.4899 2.90138C9.79059 3.93708 10.1504 5.83913 8.63467 7.1129C8.04069 8.02834 10.0198 8.56582 9.71172 8.42347C11.501 9.25547 11.9841 9.89357 12.1147 10.5513C12.2256 11.1011 12.2873 11.4398 12.2873 11.4398C12.2873 11.4398 13.628 11.2262 13.9755 10.9587C13.9879 10.6618 14.0322 10.3452 13.9583 10.0408ZM7.84352 7.63565C7.84352 7.29942 7.92486 7.18407 7.92486 7.18407C7.92239 7.18407 9.24837 6.44534 9.22372 4.10152C9.18675 3.16644 8.62974 1.5 6.91189 1.5H6.81331C5.01659 1.5 4.54091 3.16644 4.50394 4.10152C4.47929 6.30544 5.80034 7.18407 5.80034 7.18407C5.80034 7.18407 5.96054 7.37305 5.96054 7.70928C5.96054 7.78536 5.83484 7.94244 5.74858 8.01116C5.01166 8.62227 2.35724 9.23583 2.18472 10.5489C2.05163 11.106 1.26294 11.9895 3.88532 12.3454C4.60746 12.4436 5.58838 12.5 6.91436 12.5C12.9946 12.5 11.7376 11.2827 11.5651 10.5685C11.3926 9.25547 8.716 8.62227 7.97908 8.01116C7.89282 7.94244 7.84352 7.71419 7.84352 7.63565Z" />
</svg>
