<?xml version="1.0" standalone="no"?><!DOCTYPE svg PUBLIC "-//W3C//DTD SVG 1.1//EN" "http://www.w3.org/Graphics/SVG/1.1/DTD/svg11.dtd"><svg t="1558668856600" class="icon" style="" viewBox="0 0 1105 1024" version="1.1" xmlns="http://www.w3.org/2000/svg" p-id="16417" xmlns:xlink="http://www.w3.org/1999/xlink" width="53.955078125" height="50"><defs><style type="text/css"></style></defs><path d="M137.304731 89.374923h834.099946c28.735609 0 52.112684-20.159478 52.112684-44.749338S1000.140286 0 971.404677 0h-834.099946c-28.723234 0-52.112684 20.159478-52.112683 44.749338s23.4142 44.625585 52.112683 44.625585z" p-id="16418"></path><path d="M1053.651387 179.108732H52.112684C23.760711 178.737471 0.495015 201.11214 0 229.018599v744.997281c0 27.535199 23.513203 49.909868 52.112684 49.909868h1001.538703a51.085528 51.085528 0 0 0 52.112683-49.909868v-744.997281c0-27.287691-23.377074-49.909868-52.112683-49.909867zM724.57792 736.95329H599.710436V845.250154c0 27.535199-21.137132 49.909868-46.766524 49.909868s-46.766524-22.374669-46.766524-49.909868v-108.098858h-124.867484c-28.723234 0-52.112684-20.159478-52.112684-44.749338s23.513203-44.749338 52.112684-44.749339h124.867484v-64.116792h-124.867484c-28.723234 0-52.112684-20.159478-52.112684-44.873092 0-24.466107 23.513203-44.749338 52.112684-44.749338H450.463472l-25.617016-46.704647-30.369158-55.429283c-13.303523-24.342353-5.593667-53.597728 17.164638-65.03257s52.360191-0.866276 65.663714 23.352323l24.503233 44.551333a7.425222 7.425222 0 0 1 1.113783 2.215191l25.122001 45.78887 25.493263 46.222007 25.369509-46.345761 25.369508-45.78887a15.927101 15.927101 0 0 0 1.126159-1.967683l24.255725-44.551333c13.303523-24.342353 42.905408-34.910919 65.663714-23.352323 22.758306 11.311088 30.591915 40.690217 17.164639 65.03257l-30.344408 55.317904-25.617016 46.704647h67.656148c28.735609 0 52.360191 20.159478 52.360191 44.749338s-23.513203 44.873092-52.112683 44.873092H599.586682v64.166294h124.867484c28.859363-0.123754 52.236437 20.035724 52.236438 44.551333s-23.513203 44.687461-52.112684 44.687461z" p-id="16419"></path><path d="M450.339718 496.759732h7.388096l-1.584047-2.957714-5.804049 2.957714z" p-id="16420"></path></svg>