<svg xmlns="http://www.w3.org/2000/svg" viewBox="0 0 14 14" class="design-iconfont">
  <path d="M8.85717 4.66669V1.87135C8.85717 0.837226 8.02513 0 7.00188 0H2.35529C1.33012 0 0.5 0.828826 0.5 1.86664V9.33339V14H13.5V4.66669H8.85717ZM5.14375 10.2666H4.21334C3.7008 10.2666 3.2857 9.85318 3.2857 9.33339C3.2857 8.81721 3.69704 8.40007 4.21334 8.40007H5.14375C5.65629 8.40007 6.07139 8.81351 6.07139 9.33339C6.07139 9.84948 5.66005 10.2666 5.14375 10.2666ZM5.14375 5.60002H4.21334C3.7008 5.60002 3.2857 5.18565 3.2857 4.66669C3.2857 4.15152 3.69704 3.73337 4.21334 3.73337H5.14375C5.65629 3.73337 6.07139 4.14783 6.07139 4.66669C6.07139 5.18187 5.66005 5.60002 5.14375 5.60002ZM10.7142 10.2666C10.2007 10.2666 9.78574 9.85318 9.78574 9.33339C9.78574 8.81721 10.1971 8.40007 10.7142 8.40007C11.2278 8.40007 11.6428 8.81351 11.6428 9.33339C11.6429 9.84948 11.2314 10.2666 10.7142 10.2666Z" />
</svg>
