<svg  xmlns="http://www.w3.org/2000/svg" viewBox="0 0 14 14" class="design-iconfont">
  <path d="M13.0937 0C12.85 0 12.6875 0.164688 12.6875 0.41179V0.82358H1.31254V0.41179C1.31254 0.164749 1.15006 0 0.906272 0C0.662481 0 0.5 0.164688 0.5 0.41179V13.5882C0.5 13.8353 0.662481 14 0.906272 14C1.15006 14 1.31254 13.8353 1.31254 13.5882V9.88237H12.6875V13.5882C12.6875 13.8353 12.8499 14 13.0937 14C13.3375 14 13.5 13.8353 13.5 13.5882V0.41179C13.5 0.164749 13.3375 0 13.0937 0ZM9.43746 2.88233C9.88434 2.88233 10.2499 3.25292 10.2499 3.70582C10.2499 4.15873 9.8843 4.52932 9.43746 4.52932C8.99063 4.52932 8.625 4.15873 8.625 3.70582C8.625 3.25292 8.99063 2.88233 9.43746 2.88233ZM8.62498 8.23531H2.12503L5.37502 4.94117L7.81247 7.41173L9.43744 5.76469L11.8749 8.23525L8.62498 8.23531Z"/>
</svg>
