<svg xmlns="http://www.w3.org/2000/svg" viewBox="0 0 14 14" class="design-iconfont">
  <path d="M8.27846 6.66434C9.99981 7.05658 12.0023 8.33397 12.0023 12.0177C12.0023 13 10.8386 13 7.0695 13C3.25356 13 2.13673 13 2.13673 12.0177C2.13673 8.38343 4.13767 7.05818 5.86054 6.66434C4.51098 5.87809 4.04554 4.06179 4.69692 2.58828C5.34823 1.11476 6.97737 0.57417 8.23319 1.36042C9.48902 2.1465 10.0014 3.96289 9.30316 5.38695C9.06883 5.97699 8.69712 6.36923 8.27846 6.66434Z" />
  <path d="M4.38447 6.60501C4.5313 6.55885 4.56881 6.35775 4.44693 6.25885C3.36608 5.38525 3.03491 3.7601 3.62688 2.42017C3.71144 2.22762 3.81625 2.04572 3.93933 1.87789C4.0393 1.7427 3.93614 1.54658 3.77379 1.56143C3.07402 1.62405 2.41328 2.07899 2.07587 2.84211C1.60411 3.90845 1.85403 5.19572 2.69127 5.91437C2.80683 6.01488 2.77252 6.2094 2.62881 6.25716C1.33708 6.68248 0 7.81472 0 10.4899C0 10.9002 0.238961 11.098 0.893464 11.1953C0.918444 11.1988 0.943844 11.197 0.968159 11.19C0.992474 11.183 1.01521 11.1709 1.03502 11.1545C1.05482 11.138 1.0713 11.1175 1.08347 11.0943C1.09564 11.071 1.10326 11.0453 1.10587 11.0189C1.36363 8.26308 2.90992 7.06485 4.38447 6.60501ZM9.61553 6.60501C9.4687 6.55885 9.43119 6.35775 9.55307 6.25885C10.634 5.38525 10.9651 3.7601 10.3731 2.42017C10.2886 2.22763 10.1838 2.04572 10.0607 1.87789C9.96078 1.7427 10.0639 1.54658 10.2263 1.56143C10.9261 1.62405 11.5868 2.07899 11.9241 2.84211C12.3959 3.90845 12.146 5.19572 11.3087 5.91437C11.1932 6.01488 11.2275 6.2094 11.3712 6.25716C12.663 6.68248 14 7.81472 14 10.4899C14 10.9002 13.761 11.098 13.1065 11.1953C13.0816 11.1988 13.0562 11.197 13.0318 11.19C13.0075 11.183 12.9848 11.1709 12.965 11.1545C12.9452 11.138 12.9287 11.1175 12.9165 11.0943C12.9044 11.071 12.8967 11.0453 12.8941 11.0189C12.6365 8.26308 11.0901 7.06485 9.61553 6.60501Z" />
</svg>
