<?xml version="1.0" standalone="no"?><!DOCTYPE svg PUBLIC "-//W3C//DTD SVG 1.1//EN" "http://www.w3.org/Graphics/SVG/1.1/DTD/svg11.dtd"><svg t="1558669659721" class="icon" style="" viewBox="0 0 1024 1024" version="1.1" xmlns="http://www.w3.org/2000/svg" p-id="34582" xmlns:xlink="http://www.w3.org/1999/xlink" width="50" height="50"><defs><style type="text/css"></style></defs><path d="M787.1 920.7l-20.7-20.2-61.5-60 37.8-35.8 48 45.6 122.5-113.9 34.2 34.7-160.3 149.6zM819.3 659c-93.2 0-168.8 72.1-168.8 161s75.6 161 168.8 161 168.8-72 168.8-161-75.6-161-168.8-161z m-151 0H276.8c-33.4 0-60.8-26.1-60.8-58s27.3-58 60.8-58h391.5c33.4 0 60.8 26.1 60.8 58s-27.3 58-60.8 58z m78.8-536.9h-43.4v133.5H241.5V122.1h-43.4c-89.1 0-162 69.6-162 154.6v592.7c0 85 72.9 154.6 162 154.6h549c15.8 0 31.1-2.3 45.6-6.4-95.4-12.5-170.3-86.1-179.6-178.3H276.8c-33.4 0-60.8-26.1-60.8-58s27.3-58 60.8-58h361.4c37.1-63.8 107.2-103.2 183.1-103.1 31.4 0 61 6.8 87.7 18.6V276.7c0.1-85-72.8-154.6-161.9-154.6z m-274.5 3.5c-22.8 0-41.3-17.6-41.3-39.4 0-21.7 18.5-39.4 41.3-39.4 22.8 0 41.3 17.6 41.3 39.4 0 21.8-18.5 39.4-41.3 39.4z m89.6-50.1C556.6 32.9 518.7 0 472.6 0c-46.1 0-84 32.9-89.5 75.5H286V224h373.4V75.5h-97.2z" p-id="34583"></path></svg>