<svg xmlns="http://www.w3.org/2000/svg" viewBox="0 0 14 14" class="design-iconfont">
  <path d="M9.82569 5.20404V0.625277C9.82569 0.625277 7.58462 -0.575211 4.96882 0.350642L9.82569 5.20404ZM10.2504 7.8971V0.814491C10.2504 0.814491 12.8999 2.01498 13.6466 4.93032L10.2504 7.8971ZM8.82521 9.95548L13.7157 5.35835C13.7157 5.35835 14.5816 6.76458 13.291 9.95548H8.82521ZM6.32765 10.5387H12.9335C12.9335 10.5387 12.1359 12.7 9.28179 13.5909L6.32765 10.5387ZM4.17117 9.08014V13.3843C4.17117 13.3843 5.88653 14.4828 8.82521 13.7452L4.17117 9.08014ZM0.349334 9.30334L3.69548 6.30165V13.1271C3.69548 13.1271 1.67452 12.4253 0.349334 9.30334ZM0.26475 8.82296C0.26475 8.82296 -0.500162 6.35401 0.570349 4.21021H5.17255L0.26475 8.82296ZM0.859579 3.72891C0.859579 3.72891 1.82732 1.5346 4.45948 0.504953L7.60098 3.72891H0.859579Z" />
</svg>
