<svg xmlns="http://www.w3.org/2000/svg" viewBox="0 0 14 14" class="design-iconfont">
  <path d="M13.3337 4.00702C11.8893 3.38707 9.13399 2.25434 7.86231 1.70859C7.14955 1.33596 6.73978 1.51403 5.96422 1.8405C4.65329 2.35657 2.33288 3.30298 0.836698 3.89325C-0.30938 4.34008 -0.241871 4.67479 0.817858 5.2024C2.40667 5.99218 5.45398 7.20405 6.12593 7.46786C6.79787 7.73166 7.28613 7.73331 7.96436 7.41509C8.64259 7.09688 9.46839 6.69127 12.5251 5.38212V7.32276L11.9568 7.98723L12.9019 8.9287L13.9365 7.98723L13.398 7.33925V4.993C13.7466 4.76382 14.5912 4.57751 13.3337 4.00702ZM10.9316 10.9468V7.0639C9.84518 7.547 8.84982 8.07132 8.11037 8.38789C7.47296 8.73743 6.58279 8.64675 5.87944 8.38789C4.73964 7.98228 3.79923 7.67725 2.96087 7.32276V10.9468C2.96087 10.9468 4.39739 12.5 7.05692 12.5C9.52648 12.4984 10.9316 10.9468 10.9316 10.9468Z" />
</svg>
