<svg xmlns="http://www.w3.org/2000/svg" viewBox="0 0 14 14" class="design-iconfont">
  <path d="M7.59016 1.2651e-09H6.40984C6.29426 -8.21736e-06 6.18225 0.0400275 6.09285 0.113296C6.00346 0.186565 5.94221 0.28854 5.91953 0.401875L5.61453 1.92672C5.59741 2.01131 5.55876 2.09007 5.50232 2.15537C5.44589 2.22068 5.37357 2.27033 5.29234 2.29953C5.15339 2.34984 5.01734 2.40625 4.88422 2.46875C4.81682 2.50031 4.74332 2.51668 4.66891 2.51672C4.57043 2.51683 4.47413 2.48774 4.39219 2.43313L3.09844 1.57047C3.00226 1.50635 2.88683 1.47753 2.7718 1.48893C2.65676 1.50032 2.54923 1.55122 2.4675 1.63297L1.63297 2.4675C1.55122 2.54923 1.50032 2.65676 1.48893 2.7718C1.47753 2.88683 1.50635 3.00226 1.57047 3.09844L2.43313 4.39234C2.48086 4.46435 2.50921 4.54745 2.51545 4.63361C2.52169 4.71977 2.50561 4.80609 2.46875 4.88422C2.40625 5.01724 2.3499 5.15333 2.29969 5.2925C2.27048 5.37372 2.22083 5.44604 2.15553 5.50248C2.09022 5.55892 2.01147 5.59756 1.92688 5.61469L0.401875 5.91969C0.288567 5.94237 0.186611 6.00359 0.113346 6.09295C0.04008 6.18231 2.78962e-05 6.29429 1.2651e-09 6.40984V7.59C-8.21736e-06 7.70558 0.0400275 7.8176 0.113296 7.90699C0.186565 7.99638 0.28854 8.05763 0.401875 8.08031L1.92672 8.38531C2.01131 8.40244 2.09007 8.44108 2.15537 8.49752C2.22068 8.55396 2.27033 8.62628 2.29953 8.7075C2.34984 8.84656 2.40625 8.98266 2.46875 9.11578C2.50561 9.19391 2.52169 9.28023 2.51545 9.36639C2.50921 9.45255 2.48086 9.53565 2.43313 9.60766L1.57047 10.9016C1.50635 10.9977 1.47753 11.1132 1.48893 11.2282C1.50032 11.3432 1.55122 11.4508 1.63297 11.5325L2.4675 12.367C2.54923 12.4488 2.65676 12.4997 2.7718 12.5111C2.88683 12.5225 3.00226 12.4937 3.09844 12.4295L4.39234 11.5669C4.47429 11.5123 4.57059 11.4832 4.66906 11.4833C4.74343 11.4833 4.81687 11.4997 4.88422 11.5312C5.01724 11.5938 5.15333 11.6502 5.2925 11.7005C5.37372 11.7297 5.44604 11.7793 5.50248 11.8446C5.55892 11.9099 5.59756 11.9887 5.61469 12.0733L5.91969 13.5981C5.94237 13.7114 6.00359 13.8134 6.09295 13.8867C6.18231 13.9599 6.29429 14 6.40984 14H7.59C7.70558 14 7.8176 13.96 7.90699 13.8867C7.99638 13.8134 8.05763 13.7115 8.08031 13.5981L8.38531 12.0733C8.40244 11.9887 8.44108 11.9099 8.49752 11.8446C8.55396 11.7793 8.62628 11.7297 8.7075 11.7005C8.84656 11.6502 8.98266 11.5938 9.11578 11.5312C9.18317 11.4997 9.25668 11.4833 9.33109 11.4833C9.42957 11.4832 9.52587 11.5123 9.60781 11.5669L10.9017 12.4295C10.9979 12.4937 11.1133 12.5225 11.2284 12.5111C11.3434 12.4997 11.4509 12.4488 11.5327 12.367L12.3672 11.5325C12.4489 11.4508 12.4998 11.3432 12.5112 11.2282C12.5226 11.1132 12.4938 10.9977 12.4297 10.9016L11.567 9.60766C11.5193 9.53567 11.4909 9.45258 11.4846 9.36641C11.4784 9.28025 11.4944 9.19393 11.5312 9.11578C11.5938 8.98276 11.6501 8.84672 11.7003 8.70766C11.7295 8.62643 11.7792 8.55411 11.8445 8.49768C11.9098 8.44124 11.9885 8.40259 12.0731 8.38547L13.598 8.08047C13.7113 8.05782 13.8133 7.99658 13.8866 7.90719C13.9599 7.81779 14 7.70576 14 7.59016V6.40984C14 6.29426 13.96 6.18225 13.8867 6.09285C13.8134 6.00346 13.7115 5.94221 13.5981 5.91953L12.0733 5.61453C11.9887 5.59741 11.9099 5.55876 11.8446 5.50232C11.7793 5.44589 11.7297 5.37357 11.7005 5.29234C11.6502 5.15339 11.5938 5.01734 11.5312 4.88422C11.4944 4.80609 11.4783 4.71977 11.4845 4.63361C11.4908 4.54745 11.5191 4.46435 11.5669 4.39234L12.4295 3.09844C12.4937 3.00226 12.5225 2.88683 12.5111 2.7718C12.4997 2.65676 12.4488 2.54923 12.367 2.4675L11.5325 1.63297C11.4508 1.55122 11.3432 1.50032 11.2282 1.48893C11.1132 1.47753 10.9977 1.50635 10.9016 1.57047L9.60766 2.43313C9.52571 2.48774 9.42941 2.51683 9.33094 2.51672C9.25657 2.51667 9.18313 2.50029 9.11578 2.46875C8.98276 2.40625 8.84667 2.34984 8.7075 2.29953C8.62628 2.27033 8.55396 2.22068 8.49752 2.15537C8.44108 2.09007 8.40244 2.01131 8.38531 1.92672L8.08047 0.401875C8.05779 0.28854 7.99654 0.186565 7.90715 0.113296C7.81775 0.0400275 7.70574 -8.21736e-06 7.59016 1.2651e-09ZM7 10C6.30593 10 5.63333 9.75941 5.09678 9.31912C4.56024 8.87883 4.19296 8.26612 4.05753 7.5854C3.92209 6.90467 4.02688 6.19805 4.35404 5.58592C4.68119 4.97379 5.21047 4.49404 5.8517 4.22841C6.49292 3.96277 7.20641 3.92769 7.8706 4.12915C8.53479 4.3306 9.10858 4.75612 9.49421 5.3332C9.87983 5.91028 10.0534 6.60322 9.98542 7.29395C9.91742 7.98468 9.61201 8.63045 9.12125 9.12125C8.84334 9.40071 8.51276 9.62227 8.14865 9.7731C7.78453 9.92394 7.39412 10.0011 7 10Z"/>
</svg>
