<svg  xmlns="http://www.w3.org/2000/svg" viewBox="0 0 14 14" class="design-iconfont">
  <path d="M2.92465 3.88112H5.86014C5.90648 3.88131 5.95169 3.86616 5.98928 3.83784C6.02687 3.80953 6.05491 3.76951 6.06937 3.72352L6.97397 0.794085C6.98395 0.760056 6.98614 0.724055 6.98038 0.688979C6.97461 0.653902 6.96105 0.620728 6.94077 0.592124C6.92049 0.56352 6.89408 0.540284 6.86364 0.524285C6.8332 0.508285 6.79959 0.499969 6.76551 0.500004H3.82848C3.78213 0.499818 3.73692 0.514969 3.69933 0.543283C3.66174 0.571596 3.6337 0.611618 3.61924 0.657605L2.71542 3.58623C2.70486 3.62034 2.70232 3.6566 2.70801 3.69194C2.71369 3.72729 2.72744 3.76069 2.74809 3.78932C2.7687 3.81787 2.79537 3.84102 2.82601 3.85695C2.85666 3.87288 2.89042 3.88115 2.92465 3.88112ZM7.46788 3.88112H10.4041C10.4498 3.88046 10.4942 3.86492 10.531 3.83666C10.5678 3.80841 10.5952 3.76885 10.6095 3.72352L11.5164 0.794085C11.5266 0.76005 11.5289 0.723993 11.5232 0.688844C11.5175 0.653694 11.504 0.620443 11.4837 0.591791C11.4633 0.56314 11.4369 0.539895 11.4063 0.523947C11.3758 0.507998 11.3421 0.499795 11.308 0.500004H8.37093C8.32485 0.500161 8.27999 0.51547 8.24271 0.543759C8.20543 0.572049 8.17763 0.611882 8.16325 0.657605L7.25943 3.58623C7.24894 3.62032 7.24637 3.65652 7.25192 3.69185C7.25747 3.72719 7.27098 3.76063 7.29134 3.78944C7.3117 3.81824 7.33833 3.84158 7.36903 3.85752C7.39972 3.87346 7.43361 3.88155 7.46788 3.88112ZM0.23729 3.88112H1.31846C1.36536 3.88213 1.41133 3.86735 1.44957 3.83897C1.48781 3.81059 1.51629 3.77011 1.5308 3.72352L2.42996 0.794085C2.44011 0.76005 2.44244 0.723993 2.43674 0.688844C2.43105 0.653694 2.4175 0.620443 2.39719 0.591791C2.37688 0.56314 2.35039 0.539895 2.31986 0.523947C2.28933 0.507998 2.25564 0.499795 2.2215 0.500004H0.23729C0.208624 0.499897 0.18022 0.505702 0.153707 0.517085C0.127194 0.528468 0.103093 0.545206 0.0827871 0.566339C0.0624811 0.587472 0.0463693 0.612584 0.0353757 0.640234C0.0243822 0.667885 0.0187233 0.69753 0.0187235 0.72747V3.65366C0.0187233 3.6836 0.0243822 3.71324 0.0353757 3.74089C0.0463693 3.76854 0.0624811 3.79366 0.0827871 3.81479C0.103093 3.83592 0.127194 3.85266 0.153707 3.86404C0.18022 3.87543 0.208624 3.88123 0.23729 3.88112ZM13.7814 0.500004H12.9064C12.8598 0.499724 12.8144 0.514812 12.7765 0.543115C12.7387 0.571418 12.7104 0.611488 12.6956 0.657605L11.7933 3.58704C11.783 3.62086 11.7805 3.65676 11.786 3.69179C11.7916 3.72682 11.805 3.75997 11.8252 3.78851C11.8459 3.81707 11.8725 3.84027 11.9032 3.85633C11.9338 3.87239 11.9675 3.88087 12.0018 3.88112H13.7814C13.81 3.88123 13.8384 3.87545 13.8648 3.86412C13.8913 3.85279 13.9154 3.83612 13.9357 3.81507C13.956 3.79403 13.9721 3.76901 13.9831 3.74146C13.9942 3.7139 13.9999 3.68434 14 3.65447V0.726657C14.0001 0.696889 13.9945 0.667397 13.9836 0.639914C13.9726 0.612431 13.9565 0.587511 13.9362 0.566619C13.895 0.524063 13.8394 0.500138 13.7814 0.500004ZM13.5551 5.00708H0.437967C0.380766 5.00676 0.324065 5.01821 0.2711 5.04078C0.218136 5.06334 0.169946 5.09658 0.129282 5.1386C0.0886178 5.18062 0.0562762 5.23059 0.0341035 5.28566C0.0119309 5.34074 0.000361432 5.39983 5.58171e-05 5.45958V12.9091C-0.00189445 13.0533 0.0473228 13.1932 0.138228 13.3018C0.229133 13.4104 0.355295 13.48 0.492415 13.4972C0.56822 13.505 0.644748 13.4962 0.71712 13.4714C0.789492 13.4466 0.856122 13.4063 0.912761 13.3531C0.969401 13.2999 1.01481 13.235 1.04609 13.1625C1.07737 13.0899 1.09384 13.0114 1.09445 12.9318V10.6417H12.8986V12.9083C12.8969 13.0523 12.9462 13.1919 13.0371 13.3001C13.128 13.4084 13.254 13.4778 13.391 13.4948C13.4669 13.5026 13.5436 13.4938 13.6162 13.4691C13.6887 13.4443 13.7556 13.4041 13.8125 13.351C13.8692 13.2981 13.9144 13.2332 13.9453 13.1607C13.9761 13.0881 13.9918 13.0096 13.9914 12.9302V5.45795C13.9904 5.33786 13.944 5.22306 13.8622 5.1386C13.7805 5.05414 13.6701 5.00686 13.5551 5.00708ZM12.7633 6.71632C12.763 6.79093 12.7486 6.86473 12.7209 6.93351C12.6932 7.0023 12.6528 7.0647 12.6021 7.11715C12.5513 7.1696 12.491 7.21106 12.4249 7.23917C12.3587 7.26727 12.2879 7.28146 12.2165 7.28093H10.0285C9.88389 7.28101 9.74506 7.22178 9.64188 7.11602C9.56508 7.03712 9.51267 6.936 9.49142 6.8257C9.47016 6.7154 9.48104 6.60098 9.52264 6.4972C9.56425 6.39341 9.63467 6.30503 9.72483 6.24345C9.81499 6.18188 9.92075 6.14992 10.0285 6.15172H12.2165C12.3606 6.15107 12.4991 6.21014 12.6016 6.31598C12.7041 6.42182 12.7622 6.56579 12.7633 6.71632Z" />
</svg>
