<?xml version="1.0" standalone="no"?><!DOCTYPE svg PUBLIC "-//W3C//DTD SVG 1.1//EN" "http://www.w3.org/Graphics/SVG/1.1/DTD/svg11.dtd"><svg t="1602667875564" class="icon" viewBox="0 0 1024 1024" version="1.1" xmlns="http://www.w3.org/2000/svg" p-id="3223" xmlns:xlink="http://www.w3.org/1999/xlink" width="200" height="200"><defs><style type="text/css"></style></defs><path d="M597.845333 42.922667H436.48c-47.616 0-79.36 28.842667-79.36 72.192v50.858666h313.429333V115.2c0-43.349333-25.088-72.192-72.704-72.192zM710.144 69.12v67.498667c0 36.864-25.002667 61.44-62.549333 61.44H372.224c-37.546667 0-62.549333-24.576-62.549333-61.44V69.12H165.717333C96.938667 69.12 40.618667 124.330667 40.618667 191.914667L42.666667 858.453333c0 67.584 56.32 122.794667 125.184 122.794667h688.298666c68.864 0 125.184-55.210667 125.184-122.794667l-2.048-666.624c0-67.584-56.32-122.794667-125.184-122.794666H710.144zM524.970667 341.333333c97.450667 0 170.666667 81.237333 170.666666 170.666667 0 97.536-81.322667 170.666667-170.666666 170.666667-89.429333 0-170.666667-81.237333-170.666667-170.666667s73.130667-170.666667 170.666667-170.666667z m214.613333 529.066667H310.272a42.496 42.496 0 0 1-39.765333-54.272C286.378667 746.24 349.866667 699.733333 413.610667 699.733333h15.872a215.893333 215.893333 0 0 0 95.402666 23.296c31.829333 0 63.658667-7.765333 95.488-23.296h15.872c63.573333 0 119.296 46.506667 143.104 116.394667 7.936 23.210667-15.872 54.272-39.765333 54.272z" p-id="3224"></path></svg>