<svg xmlns="http://www.w3.org/2000/svg" viewBox="0 0 14 14" class="design-iconfont">
  <path d="M10.4125 2.98214C10.15 2.53571 10.675 2.44643 10.675 2.44643V2H3.325V2.44643C3.325 2.44643 3.85 2.53571 3.5875 2.98214C3.325 3.42857 1.925 5.21429 0 5.21429C0 5.21429 0.6125 6.46429 2.5375 6.64286V10.3929H4.375V6.73214H4.9V10.3929H5.95V6.73214H7.875V10.3929H8.925V6.73214H9.625V10.3929H11.55V6.55357C13.3875 6.46429 14 5.21429 14 5.21429C12.075 5.21429 10.675 3.33929 10.4125 2.98214ZM1.925 12H11.9875V10.5714H1.925V12Z" />
</svg>
