<svg  xmlns="http://www.w3.org/2000/svg" viewBox="0 0 14 14" class="design-iconfont">
  <path d="M2.2331 4.17628C2.2331 4.88608 2.51884 5.5668 3.02747 6.0687C3.53609 6.5706 4.22593 6.85257 4.94522 6.85257C5.66452 6.85257 6.35436 6.5706 6.86298 6.0687C7.37161 5.5668 7.65735 4.88608 7.65735 4.17628C7.65735 3.46649 7.37161 2.78577 6.86298 2.28387C6.35436 1.78196 5.66452 1.5 4.94522 1.5C4.22593 1.5 3.53609 1.78196 3.02747 2.28387C2.51884 2.78577 2.2331 3.46649 2.2331 4.17628ZM8.59673 5.26668C8.59671 5.51459 8.64618 5.76007 8.7423 5.98911C8.83843 6.21815 8.97933 6.42626 9.15697 6.60156C9.3346 6.77686 9.54549 6.91592 9.77759 7.01079C10.0097 7.10566 10.2584 7.15449 10.5097 7.15449C10.7609 7.15449 11.0097 7.10566 11.2418 7.01079C11.4739 6.91592 11.6847 6.77686 11.8624 6.60156C12.04 6.42626 12.1809 6.21815 12.277 5.98911C12.3732 5.76007 12.4226 5.51459 12.4226 5.26668C12.4226 4.76607 12.221 4.28597 11.8623 3.932C11.5035 3.57802 11.017 3.37916 10.5097 3.37916C10.0024 3.37916 9.51581 3.57802 9.15707 3.932C8.79833 4.28597 8.59677 4.76607 8.59673 5.26668ZM7.35503 7.45786C6.49188 7.45786 6.42616 8.07786 4.94522 8.07786C3.49934 8.07786 3.39068 7.45786 2.53542 7.45786C1.73186 7.45786 1.17542 7.91616 0.851192 8.3269C0.363974 8.94344 -0.0575219 9.9638 0.00644736 10.6841C0.0590248 11.2704 0.353459 12.5 4.94522 12.5C9.67282 12.5 9.82441 11.1917 9.86472 10.6582C9.9138 9.99752 9.58606 8.83881 8.89467 8.15396C8.41884 7.68183 7.93688 7.45786 7.35503 7.45786ZM13.5925 8.844C13.2463 8.30355 12.7512 7.68096 12.0835 7.71728C11.5884 7.74495 11.5376 8.10813 9.83668 8.12196C10.4746 8.93306 10.7743 10.0849 10.7217 10.774C10.7077 10.9669 10.6814 11.2462 10.4886 11.5393C11.1587 11.5487 11.8263 11.4584 12.4691 11.2712C13.433 10.9859 13.8492 10.7265 13.9614 10.4359C14.0736 10.1454 13.9386 9.38358 13.5925 8.844Z" />
</svg>
