<svg  xmlns="http://www.w3.org/2000/svg" viewBox="0 0 14 14" class="design-iconfont">
  <path d="M12.9629 3.34705H10.629V1.78235C10.629 1.3496 10.2816 1 9.8516 1H4.1484C3.71838 1 3.37099 1.3496 3.37099 1.78235V3.34705H1.0371C0.463744 3.34705 0 3.81375 0 4.39075V7.493H2.3339V6.97369C2.3339 6.54094 2.68128 6.19134 3.1113 6.19134C3.54132 6.19134 3.8887 6.54094 3.8887 6.97369V7.493H10.3693V6.97369C10.3693 6.54094 10.7167 6.19134 11.1467 6.19134C11.5767 6.19134 11.9241 6.54094 11.9241 6.97369V7.493H13.9983V4.38905C13.9983 3.81375 13.5346 3.34705 12.9629 3.34705ZM8.82125 3.34705H5.17707C4.75042 3.34366 4.40641 2.99406 4.40641 2.5647C4.40641 2.13195 4.75379 1.78235 5.18381 1.78235H8.81282C9.24283 1.78235 9.59022 2.13195 9.59022 2.5647C9.59191 2.99406 9.24789 3.34196 8.82125 3.34705ZM11.9258 8.79805C11.9258 9.2308 11.5784 9.5804 11.1484 9.5804C10.7184 9.5804 10.371 9.2308 10.371 8.79805V8.67416H3.8887V8.79805C3.8887 9.2308 3.54132 9.5804 3.1113 9.5804C2.68128 9.5804 2.3339 9.2308 2.3339 8.79805V8.67416H0V11.9563C0 12.5333 0.463744 13 1.0371 13H12.9629C13.5363 13 14 12.5333 14 11.9563V8.67416H11.9258V8.79805Z" />
</svg>
