<svg  xmlns="http://www.w3.org/2000/svg" viewBox="0 0 14 14" class="design-iconfont">
  <path d="M12.7853 4.32801C12.0238 3.68874 11.0194 3.42615 10.0274 3.60433C8.75506 3.8341 7.75684 4.75628 7.42358 6.00826C7.20556 6.82729 7.2881 7.65413 7.66029 8.39969L10.644 12.6574L13.5873 8.4669L13.6278 8.39969C13.863 7.92766 13.9829 7.4228 13.9829 6.90075C13.9829 5.9051 13.5468 4.96729 12.7853 4.32801ZM10.644 8.27934C9.94016 8.27934 9.36707 7.70414 9.36707 6.99766C9.36707 6.28961 9.94016 5.71598 10.644 5.71598C11.3479 5.71598 11.921 6.29117 11.921 6.99766C11.921 7.70414 11.3479 8.27934 10.644 8.27934ZM13.4721 12.9387H9.22536V11.8602L7.05451 8.76387L7.03115 8.71698C6.58109 7.81355 6.47987 6.81478 6.74305 5.82695C7.08565 4.53902 8.01068 3.54494 9.22536 3.10104V0.881545C9.22536 0.395445 8.83137 0 8.34705 0H2.40445C1.92013 0 1.52614 0.395445 1.52614 0.881545V12.9403H0.52792C0.236707 12.9403 0 13.1763 0 13.4701C0 13.764 0.23515 14 0.52792 14H13.4721C13.7633 14 14 13.764 14 13.4701C14 13.1763 13.7633 12.9387 13.4721 12.9387ZM4.49433 10.4488H3.16908V9.12024H4.49433V10.4488ZM4.49433 7.33527H3.16908V6.0067H4.49433V7.33527ZM4.49433 4.23736H3.16908V2.90879H4.49433V4.23736ZM5.29944 2.90879H6.62314V4.23736H5.29944V2.90879Z" />
</svg>
